<svg viewBox="0 0 36 41" xmlns="http://www.w3.org/2000/svg" xml:space="preserve" style="fill-rule:evenodd;clip-rule:evenodd;stroke-linejoin:round;stroke-miterlimit:2"><path d="M36 9.674v12.203c0 1.513-.229 2.817-.687 3.911a7.207 7.207 0 0 1-1.938 2.72 7.968 7.968 0 0 1-3.024 1.602 15.199 15.199 0 0 1-7.887 0 7.954 7.954 0 0 1-3.024-1.602 7.191 7.191 0 0 1-1.936-2.72c-.459-1.094-.689-2.398-.689-3.911V9.674h7.532v11.489c0 .403.013.786.04 1.151.021.335.1.663.234.971.13.281.346.514.618.665a2.89 2.89 0 0 0 2.339 0c.272-.151.488-.384.618-.665a2.86 2.86 0 0 0 .234-.971c.027-.364.04-.747.04-1.151V9.674H36ZM1.773 30.817H0v-1.766h1.773v1.766Zm8.489 0H8.487v-1.766h1.775v1.766ZM1.773 11.45H0V9.684h1.773v1.766Zm8.489 0H8.487V9.684h1.775v1.766Zm-8.489 9.683H0v-1.766h1.773v1.766Zm8.489 0H8.487v-1.766h1.775v1.766ZM1.774 0v1.764H0V0h1.774Zm8.486 0v1.764H8.487V0h1.773Zm8.57 0v1.764h-1.772V0h1.772Zm8.53 0v1.764h-1.773V0h1.773Zm8.528 0v1.764h-1.773V0h1.773ZM1.774 38.734V40.5H0v-1.766h1.774Zm8.486 0V40.5H8.487v-1.766h1.773Zm8.606 0V40.5h-1.774v-1.766h1.774Zm8.545 0V40.5h-1.774v-1.766h1.774Zm8.546 0V40.5h-1.774v-1.766h1.774Z" fill="#1696D2"/></svg>
