<svg viewBox="0 0 48 48" fill="none" xmlns="http://www.w3.org/2000/svg"><path d="M27 34.85c-.3-.3-.45-.658-.45-1.075 0-.417.133-.758.4-1.025l7.35-7.35H9.5c-.433 0-.792-.142-1.075-.425C8.142 24.692 8 24.333 8 23.9c0-.433.142-.792.425-1.075.283-.283.642-.425 1.075-.425h24.8L26.9 15c-.3-.3-.442-.65-.425-1.05.017-.4.175-.75.475-1.05.3-.267.658-.4 1.075-.4.417 0 .758.133 1.025.4L39 22.85c.167.167.283.333.35.5.067.167.1.35.1.55 0 .2-.033.383-.1.55a1.524 1.524 0 0 1-.35.5l-9.9 9.9c-.3.3-.65.45-1.05.45s-.75-.15-1.05-.45Z" fill="currentColor"/></svg>
