<svg viewBox="0 0 48 48" fill="none" xmlns="http://www.w3.org/2000/svg"><path d="M15.35 34.05H26.1c.425 0 .781-.145 1.069-.434.287-.289.431-.647.431-1.075a1.463 1.463 0 0 0-1.5-1.491H15.35c-.425 0-.781.145-1.069.434-.287.289-.431.647-.431 1.075a1.463 1.463 0 0 0 1.5 1.491Zm0-8.55h17.3c.425 0 .781-.145 1.069-.434.287-.289.431-.647.431-1.075a1.463 1.463 0 0 0-1.5-1.491h-17.3c-.425 0-.781.145-1.069.434-.287.289-.431.647-.431 1.075a1.463 1.463 0 0 0 1.5 1.491Zm0-8.55h17.3c.425 0 .781-.145 1.069-.434.287-.289.431-.647.431-1.075a1.463 1.463 0 0 0-1.5-1.491h-17.3c-.425 0-.781.145-1.069.434-.287.289-.431.647-.431 1.075a1.463 1.463 0 0 0 1.5 1.491ZM9 42c-.8 0-1.5-.3-2.1-.9-.6-.6-.9-1.3-.9-2.1V9c0-.8.3-1.5.9-2.1C7.5 6.3 8.2 6 9 6h30c.8 0 1.5.3 2.1.9.6.6.9 1.3.9 2.1v30c0 .8-.3 1.5-.9 2.1-.6.6-1.3.9-2.1.9H9Zm0-3h30V9H9v30Z" fill="currentColor"/></svg>
