<svg viewBox="0 0 48 49" fill="none" xmlns="http://www.w3.org/2000/svg"><path d="M44.377 45.133c.406 0 .406 0 .812.4.405.4.405.4.405.8v.8c0 .4 0 .4-.405.8-.406.4-.406.4-.812.4h-33.67c-2.028 0-4.056-.8-5.273-2.4-1.217-1.6-2.434-3.2-2.434-5.2v-32.8c0-2 .811-4 2.434-5.2 1.623-1.2 3.245-2.4 5.273-2.4h32.859c.811 0 1.217.4 1.623.8.405.4.811.8.811 1.6v34.4c0 .4 0 .8-.406 1.2-.405.4-.405.8-1.217.8 0 .8-.405 2-.405 3.2 0 1.2 0 2 .405 2.8Zm-33.67-8.8h1.623v-32.8h-1.623c-1.216 0-2.433.4-3.245 1.2-.811.8-1.217 2-1.217 3.2v30c1.217-1.2 2.84-1.6 4.462-1.6Zm30.83 3.2h-30.83c-1.622 0-2.84 0-3.65.8-.812.8-1.217 1.2-1.217 2s.405 1.6 1.217 2c.81.4 2.028.8 3.245.8h30.83c0-1.6 0-4 .406-5.6Zm1.218-3.2v-32.8H15.17v32.8h27.585Zm-21.906-20.8c-.406 0-.406 0-.811-.4-.406-.4-.406-.8-.406-.8v-.8c0-.4 0-.4.406-.8.405-.4.405-.4.811-.4h15.82c.407 0 .407 0 .812.4.406.4.406.4.406.8v.8c0 .4 0 .4-.406.8s-.406.4-.811.4H20.85Zm17.038 4c0-.4 0-.4-.406-.8s-.406-.4-.811-.4H20.85c-.407 0-.407 0-.812.4-.406.4-.406.4-.406.8v.8c0 .4 0 .4.406.8.405.4.405.4.811.4h15.82c.407 0 .407 0 .812-.4.406-.4.406-.8.406-.8v-.8Z" fill="currentColor"/></svg>
