<svg viewBox="0 0 48 48" fill="none" xmlns="http://www.w3.org/2000/svg"><path d="M15.691 23.9a1.462 1.462 0 0 0-1.491 1.5v7.25c0 .425.145.781.434 1.069.289.287.647.431 1.075.431a1.463 1.463 0 0 0 1.491-1.5V25.4c0-.425-.145-.781-.434-1.069a1.465 1.465 0 0 0-1.075-.431Zm16.6-10.75a1.463 1.463 0 0 0-1.491 1.5v18c0 .425.145.781.434 1.069.289.287.647.431 1.075.431a1.463 1.463 0 0 0 1.491-1.5v-18c0-.425-.145-.781-.434-1.069a1.465 1.465 0 0 0-1.075-.431Zm-8.3 15.1a1.463 1.463 0 0 0-1.491 1.5v2.9c0 .425.145.781.434 1.069.289.287.647.431 1.075.431a1.463 1.463 0 0 0 1.491-1.5v-2.9c0-.425-.145-.781-.434-1.069a1.465 1.465 0 0 0-1.075-.431ZM9 42c-.8 0-1.5-.3-2.1-.9-.6-.6-.9-1.3-.9-2.1V9c0-.8.3-1.5.9-2.1C7.5 6.3 8.2 6 9 6h30c.8 0 1.5.3 2.1.9.6.6.9 1.3.9 2.1v30c0 .8-.3 1.5-.9 2.1-.6.6-1.3.9-2.1.9H9Zm0-3h30V9H9v30Zm15.009-15.1c.427 0 .783-.145 1.066-.434.283-.289.425-.647.425-1.075 0-.427-.145-.783-.434-1.066a1.476 1.476 0 0 0-1.075-.425c-.427 0-.783.145-1.066.434-.283.289-.425.647-.425 1.075 0 .427.145.783.434 1.066.289.283.647.425 1.075.425Z" fill="currentColor"/></svg>
