<svg viewBox="0 0 48 48" fill="none" xmlns="http://www.w3.org/2000/svg"><path d="M5.5 41.5c-.425 0-.781-.145-1.069-.434A1.464 1.464 0 0 1 4 39.991 1.463 1.463 0 0 1 5.5 38.5h37c.425 0 .781.145 1.069.434.287.289.431.647.431 1.075a1.463 1.463 0 0 1-1.5 1.491h-37Zm2.994-6a2.4 2.4 0 0 1-1.769-.73A2.418 2.418 0 0 1 6 33v-8.5c0-.694.244-1.285.73-1.77A2.42 2.42 0 0 1 8.507 22a2.4 2.4 0 0 1 1.769.73c.483.485.725 1.076.725 1.77V33c0 .694-.244 1.285-.73 1.77a2.42 2.42 0 0 1-1.776.73Zm10.3 0a2.4 2.4 0 0 1-1.769-.73A2.418 2.418 0 0 1 16.3 33V14.5c0-.694.244-1.285.73-1.77a2.42 2.42 0 0 1 1.776-.73 2.4 2.4 0 0 1 1.769.73c.483.485.725 1.076.725 1.77V33c0 .694-.244 1.285-.73 1.77a2.419 2.419 0 0 1-1.776.73Zm10.35 0a2.4 2.4 0 0 1-1.769-.73A2.418 2.418 0 0 1 26.65 33V20.5c0-.694.244-1.285.73-1.77a2.42 2.42 0 0 1 1.776-.73 2.4 2.4 0 0 1 1.769.73c.483.485.725 1.076.725 1.77V33c0 .694-.244 1.285-.73 1.77a2.419 2.419 0 0 1-1.776.73Zm10.35 0a2.4 2.4 0 0 1-1.769-.73A2.418 2.418 0 0 1 37 33V8.5c0-.694.244-1.285.73-1.77A2.42 2.42 0 0 1 39.507 6a2.4 2.4 0 0 1 1.769.73c.483.485.725 1.076.725 1.77V33c0 .694-.244 1.285-.73 1.77a2.419 2.419 0 0 1-1.776.73Z" fill="currentColor"/></svg>
