<svg viewBox="0 0 48 49" fill="none" xmlns="http://www.w3.org/2000/svg"><path d="m29.535 24.333 18.027 18.028c.285.372.416.787.416 1.247 0 .46-.131.831-.416 1.116l-3.194 3.194c-.284.284-.656.415-1.116.415-.459 0-.875-.13-1.247-.415L23.978 29.89 5.951 47.918a1.992 1.992 0 0 1-1.247.415c-.46 0-.832-.13-1.116-.415L.394 44.724C.13 44.439 0 44.067 0 43.608c0-.46.131-.875.416-1.247l18.027-18.028L.416 6.306A1.992 1.992 0 0 1 0 5.059c0-.46.131-.831.416-1.116L3.61.75c.284-.284.634-.416 1.116-.416.48 0 .875.132 1.247.416L24 18.776 42.027.75a1.992 1.992 0 0 1 1.247-.416c.46 0 .832.132 1.116.416l3.194 3.194c.285.285.416.657.416 1.116 0 .46-.131.875-.416 1.247L29.535 24.333Z" fill="currentColor"/></svg>
