<svg viewBox="0 0 48 48" fill="none" xmlns="http://www.w3.org/2000/svg"><path d="M9 43.95c-.8 0-1.5-.3-2.1-.9-.6-.6-.9-1.3-.9-2.1V12.3c0-.425.145-.781.434-1.069.289-.287.647-.431 1.075-.431A1.463 1.463 0 0 1 9 12.3v28.65h22.2c.425 0 .781.144 1.069.434.287.289.431.647.431 1.075a1.463 1.463 0 0 1-1.5 1.491H9Zm6-6c-.8 0-1.5-.3-2.1-.9-.6-.6-.9-1.3-.9-2.1v-28c0-.8.3-1.5.9-2.1.6-.6 1.3-.9 2.1-.9h22c.8 0 1.5.3 2.1.9.6.6.9 1.3.9 2.1v28c0 .8-.3 1.5-.9 2.1-.6.6-1.3.9-2.1.9H15Zm0-3h22v-28H15v28Z" fill="currentColor"/></svg>
