<svg viewBox="0 0 48 48" fill="none" xmlns="http://www.w3.org/2000/svg"><path d="M24 42c-5.033 0-9.292-.775-12.775-2.325C7.742 38.125 6 36.233 6 34V14c0-2.2 1.758-4.083 5.275-5.65C14.792 6.783 19.033 6 24 6s9.208.783 12.725 2.35C40.242 9.917 42 11.8 42 14v20c0 2.233-1.742 4.125-5.225 5.675C33.292 41.225 29.033 42 24 42Zm0-24.4c2.867 0 5.808-.442 8.825-1.325 3.017-.883 4.958-1.875 5.825-2.975-.9-1.067-2.858-2.05-5.875-2.95C29.758 9.45 26.833 9 24 9c-2.933 0-5.883.433-8.85 1.3-2.967.867-4.917 1.867-5.85 3 .933 1.167 2.867 2.175 5.8 3.025 2.933.85 5.9 1.275 8.9 1.275Zm-.05 10.7c1.4 0 2.8-.075 4.2-.225 1.4-.15 2.742-.375 4.025-.675 1.283-.3 2.508-.667 3.675-1.1A21.279 21.279 0 0 0 39 24.85V17.1a23.706 23.706 0 0 1-3.2 1.45c-1.167.433-2.4.8-3.7 1.1-1.3.3-2.633.533-4 .7-1.367.167-2.75.25-4.15.25a36.784 36.784 0 0 1-8.225-.95c-1.283-.3-2.5-.667-3.65-1.1A19.555 19.555 0 0 1 9 17.1v7.75c.9.533 1.917 1.017 3.05 1.45 1.133.433 2.342.8 3.625 1.1 1.283.3 2.625.525 4.025.675 1.4.15 2.817.225 4.25.225ZM24 39c1.6 0 3.25-.142 4.95-.425 1.7-.283 3.258-.658 4.675-1.125 1.417-.467 2.617-.983 3.6-1.55.983-.567 1.575-1.15 1.775-1.75V27.9a19.695 19.695 0 0 1-3.15 1.425 33.783 33.783 0 0 1-3.675 1.075 33.36 33.36 0 0 1-4 .675 39.867 39.867 0 0 1-8.475 0c-1.4-.15-2.742-.375-4.025-.675a30.852 30.852 0 0 1-3.625-1.075A18.497 18.497 0 0 1 9 27.9v6.3c.167.567.733 1.142 1.7 1.725.967.583 2.167 1.1 3.6 1.55 1.433.45 3 .817 4.7 1.1 1.7.283 3.367.425 5 .425Z" fill="currentColor"/></svg>
