<svg viewBox="0 0 48 48" fill="none" xmlns="http://www.w3.org/2000/svg"><path d="M17.45 35.5h13.1c.425 0 .781-.145 1.069-.434.287-.289.431-.647.431-1.075a1.462 1.462 0 0 0-1.5-1.491h-13.1c-.425 0-.781.145-1.069.434-.287.289-.431.647-.431 1.075a1.462 1.462 0 0 0 1.5 1.491Zm0-8.5h13.1c.425 0 .781-.145 1.069-.434.287-.289.431-.647.431-1.075A1.462 1.462 0 0 0 30.55 24h-13.1c-.425 0-.781.145-1.069.434-.287.289-.431.647-.431 1.075A1.462 1.462 0 0 0 17.45 27ZM11 44c-.8 0-1.5-.3-2.1-.9-.6-.6-.9-1.3-.9-2.1V7c0-.8.3-1.5.9-2.1.6-.6 1.3-.9 2.1-.9h16.8c.415 0 .81.083 1.186.25.376.167.697.383.964.65l9.15 9.15c.267.267.483.588.65.964.167.376.25.771.25 1.186V41c0 .8-.3 1.5-.9 2.1-.6.6-1.3.9-2.1.9H11Zm16.55-29.2V7H11v34h26V16.3h-7.95c-.425 0-.781-.144-1.069-.431a1.452 1.452 0 0 1-.431-1.069Z" fill="currentColor"/></svg>
