<svg viewBox="0 0 48 49" fill="none" xmlns="http://www.w3.org/2000/svg"><path d="M25.785.333c3.967 0 8.727 2 13.884 5.6 5.554 5.2 8.331 11.6 8.331 18.4 0 8-3.57 14.8-10.314 20-4.364 2.8-8.727 4-13.488 4-8.727 0-15.47-4-20.628-12-2.38-3.6-3.57-7.6-3.57-12 0-7.6 3.174-14.4 9.917-19.6 3.57-2.4 7.537-4 11.505-4.4h4.363Zm-15.074 17.2v15.6c0 .8.793 1.6 1.586 1.6h23.405c.794 0 1.587-.8 1.587-1.6v-15.6c0-.4-.396-1.2-.793-1.6H11.504c-.397.8-.793 1.2-.793 1.6Zm1.586 0c1.19.8 3.968 2.8 8.728 7.2.793.8 1.983 1.6 2.777 2.4 3.967-3.2 7.537-6.4 10.71-9.2v.4c-1.19 1.6-3.173 3.6-5.553 6l6.744 8.4v.4l-7.934-8c0 .4-1.19 1.6-3.57 4l-4.364-4-7.934 8v-.4l7.14-8.4c-.793-.8-2.776-3.2-6.744-6.8Z" fill="currentColor"/></svg>
