<svg viewBox="0 0 48 48" fill="none" xmlns="http://www.w3.org/2000/svg"><path d="M9 42c-.8 0-1.5-.3-2.1-.9-.6-.6-.9-1.3-.9-2.1V9c0-.8.3-1.5.9-2.1C7.5 6.3 8.2 6 9 6h12.45c.425 0 .781.145 1.069.434.287.289.431.647.431 1.075A1.463 1.463 0 0 1 21.45 9H9v30h30V26.55c0-.425.145-.781.434-1.069.289-.287.647-.431 1.075-.431A1.463 1.463 0 0 1 42 26.55V39c0 .8-.3 1.5-.9 2.1-.6.6-1.3.9-2.1.9H9Zm9.056-12.07a1.548 1.548 0 0 1-.431-1.03c-.017-.4.125-.75.425-1.05L36.9 9h-9.45c-.425 0-.781-.145-1.069-.434a1.464 1.464 0 0 1-.431-1.075A1.462 1.462 0 0 1 27.45 6H40.5c.425 0 .781.144 1.069.431.287.288.431.644.431 1.069v13.05c0 .425-.145.781-.434 1.069-.289.287-.647.431-1.075.431A1.463 1.463 0 0 1 39 20.55v-9.4L20.15 30a1.45 1.45 0 0 1-1.036.4c-.41 0-.762-.156-1.058-.47Z" fill="currentColor"/></svg>
