<svg viewBox="0 0 48 49" fill="none" xmlns="http://www.w3.org/2000/svg"><path fill-rule="evenodd" clip-rule="evenodd" d="M24.28 48.333c1.673 0 3.991-.38 6.953-1.14 5.845-2.015 10.348-5.611 13.511-10.79C46.914 32.202 48 28.503 48 25.31v-1.977c0-.465-.14-1.558-.419-3.279-.372-3.643-2.41-7.713-6.116-12.209C36.194 2.837 30.612.333 24.721.333h-1.442c-1.674 0-3.659.326-5.953.977-6.14 2.031-10.683 5.442-13.628 10.233C1.838 14.395.605 18.132 0 22.752c.093 0 .14.054.14.163-.093.155-.14.34-.14.558v.279c0 6.527 2.225 12.256 6.674 17.186 5.24 4.93 10.923 7.395 17.047 7.395h.558Zm1-9.372h-5.047l-.07-.86V25.89c-.14-.294-.28-.441-.419-.441h-2.418v-4.954h2.418c.28-.155.419-.302.419-.442l-.14-4.395c.186-1.008.372-1.768.558-2.28.993-2.449 3.124-3.674 6.396-3.674h.72c1.985 0 2.977.14 2.977.42v4.255h-2.837c-1.705.155-2.558.961-2.558 2.418v3.42c0 .185.093.278.28.278h4.836v.28c-.294 3.116-.535 4.674-.72 4.674h-4.117c-.155 0-.248.1-.279.302v13.21Z" fill="currentColor"/></svg>
