<svg viewBox="0 0 48 48" fill="none" xmlns="http://www.w3.org/2000/svg"><path d="M39 40H13c-.8 0-1.5-.3-2.1-.9-.6-.6-.9-1.3-.9-2.1V5c0-.8.3-1.5.9-2.1.6-.6 1.3-.9 2.1-.9h16.15c.415 0 .81.083 1.186.25.376.167.697.383.964.65l9.8 9.8c.267.267.483.588.65.964.167.376.25.771.25 1.186V37c0 .8-.3 1.5-.9 2.1-.6.6-1.3.9-2.1.9Zm0-25.1h-7.85a2.17 2.17 0 0 1-1.594-.656 2.17 2.17 0 0 1-.656-1.594V5H13v32h26V14.9ZM7 46c-.8 0-1.5-.3-2.1-.9-.6-.6-.9-1.3-.9-2.1V13.55c0-.425.145-.781.434-1.069.289-.287.647-.431 1.075-.431A1.463 1.463 0 0 1 7 13.55V43h23.4c.425 0 .781.145 1.069.434.287.289.431.647.431 1.075A1.463 1.463 0 0 1 30.4 46H7Z" fill="currentColor"/></svg>
