<svg viewBox="0 0 48 48" fill="none" xmlns="http://www.w3.org/2000/svg"><path d="M7.5 42c-.425 0-.781-.144-1.069-.431A1.452 1.452 0 0 1 6 40.5v-12c0-.425.145-.781.434-1.069.289-.287.647-.431 1.075-.431A1.463 1.463 0 0 1 9 28.5v8.4L36.9 9h-8.4c-.425 0-.781-.145-1.069-.434A1.465 1.465 0 0 1 27 7.491 1.463 1.463 0 0 1 28.5 6h12c.425 0 .781.144 1.069.431.287.288.431.644.431 1.069v12c0 .425-.145.781-.434 1.069-.289.287-.647.431-1.075.431A1.463 1.463 0 0 1 39 19.5v-8.4L11.1 39h8.4c.425 0 .781.145 1.069.434.287.289.431.647.431 1.075A1.463 1.463 0 0 1 19.5 42h-12Z" fill="currentColor"/></svg>
