<svg viewBox="0 0 48 49" fill="none" xmlns="http://www.w3.org/2000/svg"><path d="M22.4.333H26c3.6 0 8 1.587 12.4 4.364 3.6 2.777 6 5.95 7.6 9.52 1.6 3.57 2 6.348 2 8.728v1.983c0 5.157-2 10.711-6.4 15.868-5.2 4.76-11.2 7.537-17.6 7.537-8.4 0-15.2-3.967-20.8-11.504-2-4.363-3.2-8.727-3.2-12.694 0-6.744 2.8-12.694 8.4-17.851 5.2-3.967 9.6-5.95 14-5.95ZM11.2 20.962v7.537c0 3.967 1.2 6.744 4 7.933 1.2.794 4.8.794 11.2.794 4.8 0 7.6-.397 8.4-1.587 1.6-1.19 2.4-3.57 2.4-6.347v-9.52c0-3.57-1.2-6.348-4-7.538l-2-.396h-12c-3.6 0-6.4 1.983-7.6 5.553-.4.794-.4 1.984-.4 3.57Zm8.4-7.141h10c3.6 0 5.6 1.983 5.6 5.554v9.917c-.8 3.967-2.4 5.554-4.8 5.554h-10c-3.6 0-5.6-1.19-6.4-3.57 0-1.19-.4-3.174-.4-5.554v-2.777c0-4.76.4-7.14 1.2-7.14.8-1.19 2.4-1.984 4.8-1.984Zm-2 10.71c0 3.174 1.6 5.158 5.2 6.348h2.8c3.6-1.19 5.2-3.57 5.2-6.347v-.397c0-1.587-.8-3.57-2.8-4.76-1.2-.794-2.4-1.19-4-1.19-2.8 0-5.2 1.586-6 4.363 0 0-.4.794-.4 1.984Zm6.4-4.363c2.4 0 3.6 1.19 4.4 3.174v1.19c-.4 2.777-1.6 4.363-4 4.363-2 0-3.2-.793-4.4-2.776v-1.587c.4-2.777 1.6-4.364 4-4.364Zm5.6-2.38c.4.793.8 1.587 1.6 1.587s1.2-.397 1.6-1.587c-.4-1.19-.8-1.587-1.6-1.587-1.2 0-1.6.793-1.6 1.587Z" fill="currentColor"/></svg>
