<svg viewBox="0 0 48 49" fill="none" xmlns="http://www.w3.org/2000/svg"><path fill-rule="evenodd" clip-rule="evenodd" d="M24.21 48.333c2.954 0 6.282-.763 9.985-2.289 5.172-2.585 9.016-6.415 11.532-11.492 1.14-2.335 1.898-5.224 2.273-8.665V23.62c0-.483-.094-1.522-.281-3.118-.188-1.596-.563-3.017-1.125-4.263-.828-2.99-3.11-6.353-6.844-10.09C34.719 2.271 29.68.332 24.633.332h-1.125c-6.25 0-12.047 2.6-17.39 7.802C2.038 13.18 0 18.148 0 23.037v2.99c.281 2.912.852 5.325 1.71 7.24.782 2.461 2.728 5.303 5.837 8.526 4.953 4.36 10.414 6.54 16.383 6.54h.28Zm-7.124-29.687c-1.531 0-2.43-.709-2.695-2.126v-.864c.593-1.23 1.445-1.845 2.554-1.845 1.813.249 2.72 1.105 2.72 2.57v.14c-.47 1.416-1.33 2.125-2.58 2.125Zm8.977 15.626h-3.985c-.156 0-.25-.093-.281-.28V20.49h4.547v1.425h.304c1.063-1.09 2.149-1.659 3.258-1.705h1.43c.266 0 .977.233 2.133.7 1.531 1.34 2.297 2.811 2.297 4.415v8.946h-4.29c-.156 0-.25-.093-.28-.28V26.75c0-1.993-.805-2.99-2.415-2.99-1.39 0-2.203.997-2.437 2.99v7.24c0 .188-.094.281-.282.281Zm-7.125 0h-3.985c-.156 0-.25-.093-.281-.28v-13.22c0-.156.094-.25.281-.281h3.985l.28.56v12.94c0 .188-.093.281-.28.281Z" fill="currentColor"/></svg>
