<svg viewBox="0 0 48 48" fill="none" xmlns="http://www.w3.org/2000/svg"><path d="M14 34c-2.833 0-5.208-.958-7.125-2.875C4.958 29.208 4 26.833 4 24s.958-5.208 2.875-7.125C8.792 14.958 11.167 14 14 14h7c.425 0 .781.145 1.069.434.287.289.431.647.431 1.075A1.463 1.463 0 0 1 21 17h-7c-2 0-3.667.667-5 2-1.333 1.333-2 3-2 5s.667 3.667 2 5c1.333 1.333 3 2 5 2h7c.425 0 .781.145 1.069.434.287.289.431.647.431 1.075A1.463 1.463 0 0 1 21 34h-7Zm3.75-8.5c-.425 0-.781-.145-1.069-.434a1.465 1.465 0 0 1-.431-1.075 1.463 1.463 0 0 1 1.5-1.491h12.5c.425 0 .781.145 1.069.434.287.289.431.647.431 1.075a1.463 1.463 0 0 1-1.5 1.491h-12.5ZM27 34c-.425 0-.781-.145-1.069-.434a1.465 1.465 0 0 1-.431-1.075A1.463 1.463 0 0 1 27 31h7c2 0 3.667-.667 5-2 1.333-1.333 2-3 2-5s-.667-3.667-2-5c-1.333-1.333-3-2-5-2h-7c-.425 0-.781-.145-1.069-.434a1.465 1.465 0 0 1-.431-1.075A1.463 1.463 0 0 1 27 14h7c2.833 0 5.208.958 7.125 2.875C43.042 18.792 44 21.167 44 24s-.958 5.208-2.875 7.125C39.208 33.042 36.833 34 34 34h-7Z" fill="currentColor"/></svg>
