<svg viewBox="0 0 48 48" fill="none" xmlns="http://www.w3.org/2000/svg"><path d="M11 44c-.8 0-1.5-.3-2.1-.9-.6-.6-.9-1.3-.9-2.1V7c0-.8.3-1.5.9-2.1.6-.6 1.3-.9 2.1-.9h15.75c.415 0 .81.083 1.186.25.376.167.697.383.964.65l10.2 10.2c.267.267.483.588.65.964.167.376.25.771.25 1.186V28c0 .425-.145.781-.434 1.069-.289.287-.647.431-1.075.431A1.463 1.463 0 0 1 37 28V18h-9.5c-.425 0-.781-.144-1.069-.431A1.452 1.452 0 0 1 26 16.5V7H11v34h19c.425 0 .781.145 1.069.434.287.289.431.647.431 1.075A1.463 1.463 0 0 1 30 44H11Zm26.5-6.35v4.75c0 .425-.145.781-.434 1.069-.289.287-.647.431-1.075.431a1.463 1.463 0 0 1-1.491-1.5V34c0-.425.144-.781.431-1.069A1.452 1.452 0 0 1 36 32.5h8.4c.425 0 .781.145 1.069.434.287.289.431.647.431 1.075a1.463 1.463 0 0 1-1.5 1.491h-4.8l5.35 5.35c.3.3.45.653.45 1.058s-.143.755-.43 1.05a1.545 1.545 0 0 1-1.093.442c-.416 0-.775-.15-1.077-.45l-5.3-5.3Z" fill="currentColor"/></svg>
