<svg viewBox="0 0 48 48" fill="none" xmlns="http://www.w3.org/2000/svg"><path d="M18.4 22.3h2.4c.524 0 .963-.177 1.318-.532.355-.355.532-.794.532-1.318v-2.4c0-.524-.177-.963-.532-1.318-.354-.355-.794-.532-1.318-.532h-3.3a.977.977 0 0 0-.665.25c-.19.167-.285.39-.285.67v8.41c0 .28.095.503.285.67.19.167.412.25.665.25a.824.824 0 0 0 .65-.285.977.977 0 0 0 .25-.665v-3.2Zm0-1.85v-2.4h2.4v2.4h-2.4Zm10.65 6c.5 0 .933-.177 1.3-.532a1.76 1.76 0 0 0 .55-1.318v-6.55a1.76 1.76 0 0 0-.55-1.318 1.808 1.808 0 0 0-1.3-.532H25.8a.977.977 0 0 0-.665.25.845.845 0 0 0-.285.668v8.364c0 .279.095.51.285.693.19.183.412.275.665.275h3.25ZM26.7 24.6v-6.55h2.35v6.55H26.7Zm8.5-2.3h1.6a.824.824 0 0 0 .65-.285.977.977 0 0 0 .25-.665.88.88 0 0 0-.25-.65.88.88 0 0 0-.65-.25h-1.6v-2.4h1.6a.824.824 0 0 0 .65-.285.977.977 0 0 0 .25-.665.88.88 0 0 0-.25-.65.88.88 0 0 0-.65-.25h-2.5a.977.977 0 0 0-.665.25c-.19.167-.285.39-.285.67v8.41c0 .28.095.503.285.67.19.167.412.25.665.25a.824.824 0 0 0 .65-.285.977.977 0 0 0 .25-.665v-3.2ZM13 38c-.8 0-1.5-.3-2.1-.9-.6-.6-.9-1.3-.9-2.1V7c0-.8.3-1.5.9-2.1.6-.6 1.3-.9 2.1-.9h28c.8 0 1.5.3 2.1.9.6.6.9 1.3.9 2.1v28c0 .8-.3 1.5-.9 2.1-.6.6-1.3.9-2.1.9H13Zm0-3h28V7H13v28Zm-6 9c-.8 0-1.5-.3-2.1-.9-.6-.6-.9-1.3-.9-2.1V11.5c0-.425.145-.781.434-1.069.289-.287.647-.431 1.075-.431A1.462 1.462 0 0 1 7 11.5V41h29.5c.425 0 .781.145 1.069.434.287.289.431.647.431 1.075A1.463 1.463 0 0 1 36.5 44H7Z" fill="currentColor"/></svg>
