<svg viewBox="0 0 48 49" fill="none" xmlns="http://www.w3.org/2000/svg"><path d="M48 24.333c0 4.321-1.084 8.321-3.236 12-2.167 3.68-5.082 6.596-8.76 8.764-3.678 2.168-7.677 3.236-11.996 3.236-4.32 0-8.318-1.084-11.997-3.236-3.678-2.168-6.593-5.084-8.76-8.764C1.084 32.67 0 28.67 0 24.333c0-4.335 1.084-8.32 3.236-12 2.167-3.679 5.082-6.595 8.76-8.763C15.674 1.417 19.673.333 23.992.333c4.32 0 8.318 1.084 11.997 3.237 3.678 2.168 6.593 5.084 8.76 8.763 2.167 3.68 3.251 7.68 3.251 12Zm-43.36 0c0 3.481.87 6.718 2.61 9.68 1.74 2.962 4.09 5.328 7.066 7.069 2.976 1.74 6.197 2.61 9.676 2.61 3.48 0 6.716-.87 9.677-2.61 2.96-1.741 5.326-4.092 7.066-7.07 1.74-2.961 2.61-6.198 2.61-9.679 0-3.48-.87-6.717-2.61-9.679-1.74-2.962-4.09-5.328-7.066-7.069-2.976-1.74-6.197-2.61-9.677-2.61-3.48 0-6.715.87-9.676 2.61-2.96 1.74-5.311 4.107-7.066 7.069-1.74 2.977-2.61 6.198-2.61 9.68Zm30.585-1.74c.779.458 1.16 1.13 1.16 2.03 0 .901-.381 1.588-1.16 2.031l-17.032 9.771c-.779.458-1.542.458-2.32 0-.779-.458-1.16-1.13-1.16-2.03V14.271c0-.9.381-1.588 1.16-2.03.778-.458 1.541-.458 2.32 0l17.032 10.35Z" fill="currentColor"/></svg>
