<svg viewBox="0 0 48 48" fill="none" xmlns="http://www.w3.org/2000/svg"><path d="M9 42a2.89 2.89 0 0 1-2.119-.881A2.89 2.89 0 0 1 6 39V9c0-.825.294-1.531.881-2.119A2.889 2.889 0 0 1 9 6h30a2.89 2.89 0 0 1 2.119.881A2.89 2.89 0 0 1 42 9v30a2.89 2.89 0 0 1-.881 2.119A2.89 2.89 0 0 1 39 42H9Zm0-3h30V13H9v26Zm15.002-5.25c-2.668 0-5.052-.72-7.152-2.158-2.1-1.438-3.633-3.305-4.6-5.6.967-2.294 2.5-4.159 4.598-5.592 2.099-1.433 4.482-2.15 7.15-2.15s5.052.72 7.152 2.157c2.1 1.439 3.633 3.306 4.6 5.6-.967 2.295-2.5 4.16-4.598 5.593-2.099 1.433-4.482 2.15-7.15 2.15ZM24 31.25c1.9 0 3.65-.464 5.247-1.391A9.86 9.86 0 0 0 33 26a9.86 9.86 0 0 0-3.753-3.859C27.65 21.214 25.9 20.75 24 20.75s-3.65.464-5.247 1.391A9.86 9.86 0 0 0 15 26a9.86 9.86 0 0 0 3.753 3.859C20.35 30.786 22.1 31.25 24 31.25Zm.006-2.75c.696 0 1.286-.244 1.769-.73a2.427 2.427 0 0 0 .725-1.776c0-.696-.244-1.286-.73-1.769a2.427 2.427 0 0 0-1.776-.725c-.696 0-1.286.244-1.769.73a2.427 2.427 0 0 0-.725 1.776c0 .696.244 1.286.73 1.769a2.427 2.427 0 0 0 1.776.725Z" fill="currentColor"/></svg>
