<svg viewBox="0 0 47 47" xmlns="http://www.w3.org/2000/svg" xml:space="preserve" style="fill-rule:evenodd;clip-rule:evenodd;stroke-linejoin:round;stroke-miterlimit:2"><g transform="matrix(.98947 0 0 .99904 -.365 -.059)"><path style="fill:none" d="M.369.059h47.5v47.045H.369z"/><clipPath id="project-svg"><path d="M.369.059h47.5v47.045H.369z"/></clipPath><g clip-path="url(#project-svg)"><path d="M47 47H0V0h47v47ZM45 2H2v43h43V2ZM16.071 6.84c5.535 0 10.024 4.488 10.024 10.024 0 5.536-4.488 10.023-10.024 10.023-5.536 0-10.024-4.487-10.024-10.023S10.535 6.84 16.071 6.84Zm6.189 14.546a7.667 7.667 0 0 0-5.01-12.097v7.086l5.01 5.011ZM14.891 9.289a7.667 7.667 0 1 0 5.702 13.765l-5.357-5.356a1.18 1.18 0 0 1-.345-.834V9.289Zm1.179 31.356-1.667-1.668 8.696-8.696a2.65 2.65 0 0 1 3.75 0l3.813 3.813a.294.294 0 0 0 .416 0l8.695-8.695 1.668 1.667-8.696 8.696a2.654 2.654 0 0 1-3.75 0l-3.813-3.812a.291.291 0 0 0-.208-.087.299.299 0 0 0-.209.086l-8.695 8.696ZM31.106 9.79h8.058v2.358h-8.058V9.79Zm0 6.878h8.058v2.359h-8.058v-2.359Z" style="fill:currentColor" transform="matrix(1.01064 0 0 1.00096 .37 .059)"/></g></g></svg>
