<svg viewBox="0 0 48 48" xmlns="http://www.w3.org/2000/svg" xml:space="preserve" style="fill-rule:evenodd;clip-rule:evenodd;stroke-linejoin:round;stroke-miterlimit:2"><path d="M.815 8.234h1.624V42.14h38.247v1.624H.815V8.234Zm11.189 12.57a.813.813 0 0 1 0-1.625h4.053a.928.928 0 0 0 .853-.568l.002-.006 3.011-7.08a1.679 1.679 0 0 1 2.549-.692c.273.203.478.484.588.806l.005.014s5.477 17.038 5.48 17.044a.046.046 0 0 0 .016.018c.009.007.02.011.031.011a.054.054 0 0 0 .033-.008.059.059 0 0 0 .018-.02l2.995-7.925.011-.025a2.542 2.542 0 0 1 2.353-1.569h4.052a.813.813 0 0 1 0 1.625h-4.052a.926.926 0 0 0-.85.559l-2.998 7.934a1.684 1.684 0 0 1-1.621 1.053 1.677 1.677 0 0 1-1.529-1.136l-.005-.014s-5.477-17.038-5.48-17.044a.058.058 0 0 0-.016-.019.068.068 0 0 0-.031-.011.057.057 0 0 0-.032.009.051.051 0 0 0-.022.026l-3.008 7.074a2.55 2.55 0 0 1-2.354 1.569h-4.052Zm31.623 18.074H5.45V.701h38.177v38.177ZM42.002 2.326H7.075v34.927h34.927V2.326Z" style="fill:currentColor" transform="translate(1.78 1.767)"/><path style="fill:none" d="M-.029.004h46.572v44.381H-.029z" transform="matrix(1.03066 0 0 1.08154 .03 -.004)"/></svg>
