<svg viewBox="0 0 48 48" xmlns="http://www.w3.org/2000/svg" xml:space="preserve" style="fill-rule:evenodd;clip-rule:evenodd;stroke-linejoin:round;stroke-miterlimit:2"><path style="fill:none" d="M-.954-.72h46.745v46.71H-.954z" transform="matrix(1.02684 0 0 1.02762 .98 .74)"/><path d="M43.627 38.275H5.45V.099h38.177v38.176ZM42.002 1.723H7.075v34.928h34.927V1.723ZM18.28 16.38a1.516 1.516 0 0 1 1.517 1.518V27.96c0 .41-.332.743-.743.743H14.41a.743.743 0 0 1-.743-.743V17.898a1.517 1.517 0 0 1 1.517-1.518h3.096Zm0 1.487h-3.096a.031.031 0 0 0-.022.009.032.032 0 0 0-.009.022v9.319h3.158v-9.319a.03.03 0 0 0-.009-.022.03.03 0 0 0-.022-.009Zm7.864-10.775c.403 0 .789.16 1.073.445.285.284.445.67.445 1.072V27.96c0 .41-.333.743-.743.743h-4.645a.743.743 0 0 1-.743-.743V8.609c0-.402.16-.788.445-1.072.284-.285.67-.445 1.072-.445h3.096Zm.001 1.486h-3.097a.031.031 0 0 0-.021.009.032.032 0 0 0-.01.022v18.608h3.159V8.609a.032.032 0 0 0-.01-.022.031.031 0 0 0-.021-.009Zm7.864 3.158a1.518 1.518 0 0 1 1.517 1.517V27.96c0 .41-.333.743-.743.743h-4.644a.743.743 0 0 1-.743-.743V13.253a1.514 1.514 0 0 1 1.517-1.517h3.096Zm0 1.486h-3.096a.036.036 0 0 0-.022.009.031.031 0 0 0-.009.022v13.964h3.158V13.253a.036.036 0 0 0-.009-.022.036.036 0 0 0-.022-.009ZM11.948 32.203a.776.776 0 0 1 0-1.551h25.296a.777.777 0 0 1 0 1.551H11.948ZM.815 7.631h1.624v33.906h38.247v1.624H.815V7.631Z" style="fill:currentColor" transform="matrix(1 0 0 1 1.78 2.37)"/></svg>
