<svg viewBox="0 0 48 48" xmlns="http://www.w3.org/2000/svg" xml:space="preserve" style="fill-rule:evenodd;clip-rule:evenodd;stroke-linejoin:round;stroke-miterlimit:2"><path style="fill:none" d="M-1.833-1.108h49.348v46.917H-1.833z" transform="matrix(.97268 0 0 1.02308 1.783 1.133)"/><path d="M43.627 38.79H5.45V.613h38.177V38.79ZM42.002 2.238H7.075v34.927h34.927V2.238Zm-9.576 19.411a.738.738 0 0 1 .004.082v4.528c0 .72-.383 1.432-1.158 2.03-1.352 1.043-4.063 1.801-7.201 1.801-3.139 0-5.85-.758-7.201-1.801-.776-.598-1.159-1.31-1.159-2.03v-4.528c0-.032.002-.063.005-.093-.002-.044-.004-.088-.004-.132V12.45c0-.493.178-.986.553-1.446.432-.532 1.162-1.04 2.168-1.442 1.496-.599 3.523-.943 5.639-.943 2.115 0 4.142.344 5.638.943 1.006.402 1.736.91 2.168 1.442.375.46.553.953.553 1.446v9.056c0 .048-.002.096-.005.143Zm-15.09 2.203v2.407c0 .155.081.295.196.435.194.232.482.441.837.635 1.284.701 3.362 1.137 5.702 1.137 2.339 0 4.417-.436 5.702-1.137.354-.194.642-.403.836-.635.115-.14.197-.28.197-.435v-2.406c-1.456.876-3.924 1.484-6.734 1.484-2.812 0-5.281-.608-6.736-1.485Zm.001-4.528v2.182c0 .155.081.296.196.435.194.232.482.441.837.635 1.284.701 3.362 1.137 5.702 1.137 2.339 0 4.417-.436 5.702-1.137.354-.194.642-.403.836-.635.115-.139.197-.28.197-.435v-2.182c-1.456.876-3.924 1.484-6.735 1.484-2.812 0-5.28-.608-6.735-1.484Zm0-4.527v2.181c0 .154.081.295.196.434.194.232.482.441.837.635 1.284.701 3.362 1.137 5.702 1.137 2.339 0 4.417-.436 5.702-1.137.354-.193.642-.402.836-.635.115-.139.197-.28.197-.434v-2.181a7.329 7.329 0 0 1-1.097.542c-1.496.599-3.523.943-5.638.943-2.116 0-4.143-.344-5.639-.943a7.268 7.268 0 0 1-1.096-.542Zm13.47-2.347c0-.204-.135-.385-.327-.57-.314-.304-.782-.573-1.373-.81-1.335-.534-3.147-.826-5.035-.826-1.888 0-3.7.292-5.035.826-.592.237-1.06.506-1.374.81-.191.185-.326.366-.326.57 0 .204.135.387.326.571.314.304.782.573 1.374.81 1.335.534 3.147.826 5.035.826 1.888 0 3.7-.292 5.035-.826.591-.237 1.059-.506 1.373-.81.192-.184.327-.367.327-.571ZM.815 8.146h1.624v33.906h38.247v1.624H.815V8.146Z" style="fill:currentColor" transform="translate(1.78 1.855)"/></svg>
