<svg viewBox="0 0 48 49" fill="none" xmlns="http://www.w3.org/2000/svg"><path d="M48 47.049c0 .355-.118.659-.372.913a1.237 1.237 0 0 1-.913.371h-2.569c-.355 0-.659-.118-.912-.371a1.237 1.237 0 0 1-.372-.913c-.22-7.437-2.214-14.316-6-20.688-3.718-6.22-8.687-11.171-14.89-14.89-6.355-3.786-13.25-5.78-20.687-6-.355 0-.66-.118-.913-.371A1.237 1.237 0 0 1 0 4.187v-2.57C0 1.264.118.96.372.706.625.452.93.333 1.285.333 9.65.553 17.392 2.801 24.54 7.077c6.997 4.14 12.574 9.685 16.715 16.614C45.55 30.908 47.797 38.7 48 47.05Zm-14.569 0c0 .355-.118.659-.372.913a1.237 1.237 0 0 1-.912.371h-2.57c-.355 0-.659-.118-.912-.371-.254-.254-.372-.524-.372-.812-.22-4.85-1.555-9.312-4.023-13.335a28.939 28.939 0 0 0-9.752-9.752c-4.04-2.468-8.484-3.803-13.335-4.023-.287 0-.558-.118-.811-.371-.254-.237-.372-.541-.372-.913v-2.57c0-.354.118-.658.372-.912.253-.236.558-.372.913-.372 5.712.22 10.985 1.792 15.802 4.716 4.817 2.924 8.704 6.794 11.628 11.577 2.924 4.783 4.496 10.074 4.716 15.854ZM8.569 31.195c2.35 0 4.377.845 6.05 2.519 1.674 1.673 2.519 3.701 2.519 6.05 0 2.35-.845 4.378-2.518 6.051-1.673 1.673-3.702 2.518-6.051 2.518-2.366 0-4.377-.845-6.05-2.518C.844 44.142 0 42.131 0 39.765c0-2.367.845-4.378 2.518-6.051 1.674-1.674 3.702-2.519 6.051-2.519Zm0 5.138c-.93 0-1.74.338-2.417 1.014-.676.676-1.014 1.488-1.014 2.417 0 .93.338 1.724 1.014 2.417.676.693 1.487 1.014 2.417 1.014.93 0 1.724-.338 2.417-1.014.693-.676 1.014-1.487 1.014-2.417 0-.93-.338-1.74-1.014-2.417-.676-.676-1.487-1.014-2.417-1.014Z" fill="currentColor"/></svg>
