<?xml version="1.0" encoding="UTF-8" standalone="no"?>
<svg
   viewBox="0 0 50 50"
   width="50px"
   height="50px"
   version="1.1"
   id="svg4"
   sodipodi:docname="scholar.svg"
   inkscape:version="1.2.2 (732a01da63, 2022-12-09)"
   xmlns:inkscape="http://www.inkscape.org/namespaces/inkscape"
   xmlns:sodipodi="http://sodipodi.sourceforge.net/DTD/sodipodi-0.dtd"
   xmlns="http://www.w3.org/2000/svg"
   xmlns:svg="http://www.w3.org/2000/svg">
  <defs
     id="defs8" />
  <sodipodi:namedview
     id="namedview6"
     pagecolor="#ffffff"
     bordercolor="#000000"
     borderopacity="0.25"
     inkscape:showpageshadow="2"
     inkscape:pageopacity="0.0"
     inkscape:pagecheckerboard="0"
     inkscape:deskcolor="#d1d1d1"
     showgrid="false"
     inkscape:zoom="16.46"
     inkscape:cx="25.060753"
     inkscape:cy="25.030377"
     inkscape:window-width="1920"
     inkscape:window-height="1009"
     inkscape:window-x="1912"
     inkscape:window-y="-8"
     inkscape:window-maximized="1"
     inkscape:current-layer="svg4" />
  <path
     d="M 11.95,3 C 7.0071609,3 3,7.0071609 3,11.95 c 0,4.942834 4.0071609,8.95 8.95,8.95 4.942834,0 8.95,-4.007166 8.95,-8.95 C 20.9,7.0071609 16.892834,3 11.95,3 Z m -1.627274,3.2545459 h 6.915918 L 16.82388,6.6128925 c 0,0.016305 0.0087,0.032184 0.0087,0.04847 v 2.1477101 c 0.244094,0.1383225 0.406821,0.3989728 0.406821,0.7000155 V 11.95 c 0,0.4475 -0.366141,0.813645 -0.813641,0.813645 -0.4475,0 -0.813636,-0.366145 -0.813636,-0.813645 V 9.5090876 c 0,-0.301042 0.162728,-0.5616915 0.406824,-0.7000113 V 7.3001972 L 14.55819,8.5532277 c 0.142389,0.2847683 0.239968,0.6305006 0.239968,1.0535931 0,1.1065552 -0.618084,1.6555532 -1.232379,2.1437392 -0.191205,0.195276 -0.415556,0.407038 -0.415556,0.73656 0,0.32546 0.224223,0.508662 0.38695,0.63883 l 0.524414,0.418746 c 0.646848,0.553267 1.233171,1.062056 1.233171,2.091306 0,1.403517 -1.33853,2.823082 -3.8608,2.823082 -2.1276612,0 -3.152837,-1.02925 -3.152837,-2.135793 0,-0.537 0.2641394,-1.297939 1.1306628,-1.822732 0.9072112,-0.565483 2.1401162,-0.642547 2.8032332,-0.687297 -0.207469,-0.2685 -0.443368,-0.549208 -0.443368,-1.01704 0,-0.248168 0.07694,-0.398564 0.150171,-0.581626 -0.162723,0.01629 -0.325519,0.03261 -0.471972,0.03261 -1.5459067,0 -2.4287997,-1.171835 -2.4369356,-2.3312606 H 6.2545922 Z m 1.3301,1.3181839 c -0.37833,0 -0.789035,0.1914897 -1.024992,0.4966064 -0.248148,0.3091798 -0.325768,0.711614 -0.325768,1.098093 0,1.0007668 0.578379,2.6602178 1.835443,2.6602178 0.370208,0 0.764415,-0.178723 1.000372,-0.418748 0.333582,-0.345791 0.366286,-0.821733 0.366286,-1.086173 0,-1.0780655 -0.630874,-2.7499962 -1.851341,-2.7499962 z m 0.719883,6.6592572 c -0.130176,0 -0.923187,0.02838 -1.537481,0.239971 -0.325456,0.122039 -1.2609842,0.476483 -1.2609842,1.538278 0,1.06179 1.0088402,1.822731 2.5791722,1.822731 1.411648,0 2.156437,-0.691878 2.156437,-1.615341 0,-0.76075 -0.480007,-1.16345 -1.594688,-1.96895 -0.117984,-0.01627 -0.191924,-0.01673 -0.342456,-0.01673 z"
     id="path2"
     style="stroke-width:0.406814" />
</svg>
