<?xml version="1.0" encoding="UTF-8" standalone="no"?>
<svg
   viewBox="0 0 18.000002 18"
   width="18.000002"
   height="18"
   version="1.1"
   id="svg4"
   xmlns="http://www.w3.org/2000/svg"
   xmlns:svg="http://www.w3.org/2000/svg">
  <defs
     id="defs8" />
  <path
     d="M 9.0000006,-4.4146729e-7 C 4.0295476,-4.4146729e-7 6.4245605e-7,4.0295466 6.4245605e-7,8.9999996 6.4245605e-7,13.970448 4.0295476,18 9.0000006,18 13.970449,18 18.000001,13.970448 18.000001,8.9999996 18.000001,4.0295466 13.970449,-4.4146729e-7 9.0000006,-4.4146729e-7 Z M 7.3636356,3.2727276 H 14.31819 l -0.417081,0.360348 c 0,0.01639 0.0087,0.03236 0.0087,0.04874 v 2.159708 c 0.245458,0.139096 0.409094,0.401202 0.409094,0.703927 v 2.454548 c 0,0.45 -0.368187,0.818191 -0.818187,0.818191 -0.45,0 -0.818181,-0.368191 -0.818181,-0.818191 v -2.454549 c 0,-0.302724 0.163637,-0.564829 0.409097,-0.703922 v -1.517309 l -1.468919,1.260031 c 0.143184,0.28636 0.241308,0.634023 0.241308,1.05948 0,1.112736 -0.621536,1.664802 -1.239263,2.155715 -0.192273,0.196367 -0.417878,0.409312 -0.417878,0.740675 0,0.327278 0.225476,0.5115034 0.389112,0.6423994 l 0.527344,0.421085 c 0.650461,0.556358 1.24006,1.067989 1.24006,2.102989 0,1.411358 -1.346008,2.838854 -3.8823694,2.838854 -2.139547,0 -3.170451,-1.035 -3.170451,-2.147725 0,-0.54 0.265615,-1.30519 1.13698,-1.832915 0.912279,-0.568642 2.152072,-0.646137 2.818894,-0.691137 -0.208629,-0.27 -0.445845,-0.552276 -0.445845,-1.0227224 0,-0.249554 0.07737,-0.40079 0.15101,-0.584875 -0.163632,0.01638 -0.327338,0.03279 -0.474609,0.03279 -1.554543,0 -2.442369,-1.178381 -2.45055,-2.344284 h -2.77373 z m 1.337531,1.325548 c -0.380444,0 -0.793443,0.192559 -1.030718,0.49938 -0.249535,0.310908 -0.327588,0.71559 -0.327588,1.104228 0,1.006358 0.58161,2.675079 1.845697,2.675079 0.372276,0 0.768685,-0.179721 1.0059604,-0.421087 0.335446,-0.347723 0.368332,-0.826324 0.368332,-1.092241 0,-1.084089 -0.6343984,-2.765359 -1.8616834,-2.765359 z m 0.723905,6.6964604 c -0.130904,0 -0.928345,0.02854 -1.546071,0.241311 -0.327274,0.122721 -1.268028,0.479145 -1.268028,1.546872 0,1.067722 1.014476,1.832914 2.59358,1.832914 1.4195354,0 2.1684854,-0.695744 2.1684854,-1.624366 0,-0.765 -0.482689,-1.169949 -1.6035974,-1.979949 -0.118643,-0.01636 -0.192997,-0.01682 -0.344369,-0.01682 z"
     id="path2"
     style="stroke-width:0.409087" />
</svg>
