<svg viewBox="0 0 48 49" fill="none" xmlns="http://www.w3.org/2000/svg"><path fill-rule="evenodd" clip-rule="evenodd" d="M24.152 48.333c1.742 0 3.92-.326 6.534-.98 5.631-1.773 10.08-4.993 13.347-9.66C46.678 33.073 48 29.05 48 25.629v-2.287c0-5.896-2.645-11.528-7.934-16.895C35.088 2.371 29.923.333 24.572.333h-.98c-5.663 0-11.061 2.225-16.195 6.674C2.466 12.25 0 18.03 0 24.345c0 5.912 2.178 11.356 6.534 16.334 5.134 5.103 10.96 7.654 17.478 7.654h.14Zm-3.267-13.627c-1.96 0-4.278-.615-6.954-1.844v-.28h.84c1.836 0 3.687-.568 5.554-1.703v-.42c-1.665 0-3.042-.996-4.13-2.987v-.28l.723.14h.7l.28-.14c-2.365-1.307-3.547-2.87-3.547-4.69v-.14c.669.373 1.33.56 1.983.56v-.14c-1.197-1.214-1.859-2.303-1.983-3.267V17.81c.373-.607.56-.988.56-1.143h.163l1.984 1.843c2.131 1.68 4.682 2.723 7.654 3.127.202 0 .303-.093.303-.28v-1.143c0-.762.14-1.377.42-1.844.965-1.789 2.24-2.683 3.827-2.683h1.143c.856.093 1.805.568 2.847 1.423h.42c.296 0 1.144-.334 2.544-1.003h.14v.14a4.84 4.84 0 0 1-1.984 2.123l.14.304c.98-.203 1.743-.444 2.287-.724v.14c-.015.171-.778.98-2.287 2.427v.98c0 2.598-1.042 5.344-3.127 8.237-2.893 3.314-6.393 4.97-10.5 4.97Z" fill="currentColor"/></svg>
