<svg viewBox="0 0 48 49" fill="none" xmlns="http://www.w3.org/2000/svg"><path d="M43.992 8.333c1.117 0 2.05.394 2.839 1.17.788.774 1.169 1.72 1.169 2.837v23.974c0 1.116-.394 2.049-1.17 2.837-.775.788-1.72 1.17-2.838 1.17h-.998c-1.117 0-2.05-.395-2.838-1.17l-8.16-8.158v5.334c0 1.116-.395 2.05-1.17 2.837-.775.788-1.721 1.17-2.838 1.17H3.995c-1.117 0-2.05-.395-2.839-1.17C.368 38.39 0 37.43 0 36.314V12.327c0-1.104.394-2.05 1.17-2.825a3.86 3.86 0 0 1 2.825-1.169h23.993c1.117 0 2.05.394 2.838 1.17.789.774 1.17 1.72 1.17 2.837v5.32l8.16-8.158a3.86 3.86 0 0 1 2.825-1.169h1.011Zm-16.004 27.98V12.328H3.995v23.987h23.993Zm16.004 0V12.328h-.998L31.996 23.322v1.997l10.998 10.995h.998Z" fill="currentColor"/></svg>
