<svg viewBox="0 0 48 48" fill="none" xmlns="http://www.w3.org/2000/svg"><path d="M24.006 31.5c2.363 0 4.37-.827 6.02-2.48 1.65-1.655 2.474-3.663 2.474-6.026s-.827-4.369-2.48-6.019c-1.655-1.65-3.663-2.475-6.026-2.475s-4.369.827-6.019 2.48c-1.65 1.655-2.475 3.663-2.475 6.026s.827 4.369 2.481 6.019c1.654 1.65 3.662 2.475 6.025 2.475Zm-.018-2.9c-1.558 0-2.88-.546-3.963-1.637-1.083-1.09-1.625-2.416-1.625-3.975 0-1.559.546-2.88 1.637-3.963 1.091-1.083 2.416-1.625 3.975-1.625 1.559 0 2.88.546 3.963 1.637 1.083 1.09 1.625 2.416 1.625 3.975 0 1.559-.546 2.88-1.637 3.963-1.09 1.083-2.416 1.625-3.975 1.625ZM24 38c-4.6 0-8.792-1.25-12.575-3.75-3.783-2.5-6.706-5.801-8.768-9.904a1.801 1.801 0 0 1-.232-.605A3.612 3.612 0 0 1 2.35 23c0-.255.025-.502.075-.741a1.8 1.8 0 0 1 .232-.605c2.062-4.103 4.985-7.404 8.768-9.904C15.208 9.25 19.4 8 24 8s8.792 1.25 12.575 3.75c3.783 2.5 6.706 5.801 8.768 9.904a1.8 1.8 0 0 1 .232.605c.05.239.075.486.075.741s-.025.502-.075.741a1.8 1.8 0 0 1-.232.605c-2.062 4.103-4.985 7.404-8.768 9.904C32.792 36.75 28.6 38 24 38Zm-.008-3c4.039 0 7.75-1.092 11.133-3.275 3.383-2.183 5.958-5.092 7.725-8.725-1.767-3.633-4.339-6.542-7.717-8.725C31.756 12.092 28.047 11 24.008 11c-4.038 0-7.75 1.092-11.133 3.275C9.492 16.458 6.9 19.367 5.1 23c1.8 3.633 4.389 6.542 7.767 8.725C16.244 33.908 19.953 35 23.992 35Z" fill="currentColor"/></svg>
