<svg viewBox="0 0 48 49" fill="none" xmlns="http://www.w3.org/2000/svg"><path d="M47.719 44.296c.192.193.281.444.281.755 0 .31-.089.591-.281.842l-2.159 2.07c-.251.252-.532.37-.843.37a.899.899 0 0 1-.754-.37l-11.43-11.341c-.193-.252-.282-.503-.282-.754V34.55a20.163 20.163 0 0 1-5.9 3.52 18.874 18.874 0 0 1-6.846 1.272c-3.564 0-6.832-.873-9.804-2.633-2.973-1.745-5.324-4.11-7.084-7.083C.872 26.655 0 23.402 0 19.838s.872-6.832 2.632-9.79c1.745-2.972 4.111-5.323 7.083-7.082 2.958-1.76 6.226-2.633 9.79-2.633 3.563 0 6.831.873 9.789 2.633 2.972 1.744 5.323 4.11 7.083 7.083 1.745 2.972 2.632 6.24 2.632 9.789 0 2.38-.429 4.658-1.272 6.847a19.849 19.849 0 0 1-3.519 5.9h1.316c.31 0 .562.088.754.28L47.72 44.297Zm-28.214-9.463c2.69 0 5.19-.666 7.497-2.012a15.016 15.016 0 0 0 5.486-5.486c1.346-2.307 2.011-4.806 2.011-7.497s-.665-5.19-2.011-7.497a15.016 15.016 0 0 0-5.486-5.486 14.668 14.668 0 0 0-7.497-2.026c-2.692 0-5.19.665-7.498 2.01a15.016 15.016 0 0 0-5.486 5.487c-1.345 2.307-2.01 4.806-2.01 7.497 0 2.692.665 5.19 2.01 7.497a15.016 15.016 0 0 0 5.486 5.487 14.63 14.63 0 0 0 7.498 2.026Z" fill="#1696D2"/></svg>
