<?xml version="1.0" encoding="utf-8"?>
<!-- Generator: Adobe Illustrator 22.0.1, SVG Export Plug-In . SVG Version: 6.00 Build 0)  -->
<svg version="1.1" id="Layer_1" xmlns="http://www.w3.org/2000/svg" xmlns:xlink="http://www.w3.org/1999/xlink" x="0px" y="0px"
	 viewBox="20 0 400 240" style="enable-background:new 20 0 400 240;" xml:space="preserve">
<style type="text/css">
	.st0{fill:none;}
	.st1{fill:#FFFFFF;}
</style>
<title>ui-logo-rgb-white</title>
<metadata><?xpacket begin="﻿" id="W5M0MpCehiHzreSzNTczkc9d"?>
<x:xmpmeta xmlns:x="adobe:ns:meta/" x:xmptk="Adobe XMP Core 5.6-c148 79.163858, 2019/03/06-03:18:36        ">
   <rdf:RDF xmlns:rdf="http://www.w3.org/1999/02/22-rdf-syntax-ns#">
      <rdf:Description rdf:about=""
            xmlns:dc="http://purl.org/dc/elements/1.1/"
            xmlns:lr="http://ns.adobe.com/lightroom/1.0/"
            xmlns:xmp="http://ns.adobe.com/xap/1.0/"
            xmlns:xmpMM="http://ns.adobe.com/xap/1.0/mm/"
            xmlns:stEvt="http://ns.adobe.com/xap/1.0/sType/ResourceEvent#">
         <dc:title>
            <rdf:Alt>
               <rdf:li xml:lang="x-default">ui-logo-rgb-white</rdf:li>
            </rdf:Alt>
         </dc:title>
         <dc:subject>
            <rdf:Bag>
               <rdf:li>Urban Brand 2018</rdf:li>
            </rdf:Bag>
         </dc:subject>
         <dc:creator>
            <rdf:Seq>
               <rdf:li>John Wehmann</rdf:li>
            </rdf:Seq>
         </dc:creator>
         <lr:hierarchicalSubject>
            <rdf:Bag>
               <rdf:li>Urban Brand 2018</rdf:li>
            </rdf:Bag>
         </lr:hierarchicalSubject>
         <xmp:MetadataDate>2019-09-06T08:48:18-04:00</xmp:MetadataDate>
         <xmpMM:InstanceID>xmp.iid:c012fe38-e4be-4e60-b166-bcfdd9ec9737</xmpMM:InstanceID>
         <xmpMM:DocumentID>xmp.did:85d4d2a0-1e07-4b71-b398-789562f90b7f</xmpMM:DocumentID>
         <xmpMM:OriginalDocumentID>xmp.did:85d4d2a0-1e07-4b71-b398-789562f90b7f</xmpMM:OriginalDocumentID>
         <xmpMM:History>
            <rdf:Seq>
               <rdf:li>
                  <rdf:Description>
                     <stEvt:action>saved</stEvt:action>
                     <stEvt:instanceID>xmp.iid:85d4d2a0-1e07-4b71-b398-789562f90b7f</stEvt:instanceID>
                     <stEvt:when>2018-02-06T16:26:50-05:00</stEvt:when>
                     <stEvt:softwareAgent>Adobe Bridge CC 2018 (Macintosh)</stEvt:softwareAgent>
                     <stEvt:changed>/metadata</stEvt:changed>
                  </rdf:Description>
               </rdf:li>
               <rdf:li>
                  <rdf:Description>
                     <stEvt:action>saved</stEvt:action>
                     <stEvt:instanceID>xmp.iid:c012fe38-e4be-4e60-b166-bcfdd9ec9737</stEvt:instanceID>
                     <stEvt:when>2019-09-06T08:48:18-04:00</stEvt:when>
                     <stEvt:softwareAgent>Adobe Bridge 2019 (Macintosh)</stEvt:softwareAgent>
                     <stEvt:changed>/metadata</stEvt:changed>
                  </rdf:Description>
               </rdf:li>
            </rdf:Seq>
         </xmpMM:History>
      </rdf:Description>
   </rdf:RDF>
</x:xmpmeta>














<?xpacket end="w"?></metadata>
<rect class="st0" width="400" height="240"/>
<path class="st1" d="M133.6,127.9h5.1V142h-5.1V127.9z"/>
<path class="st1" d="M156,127.9h4.9l4.6,7.9h0.1c-0.2-1.2-0.4-2.4-0.4-3.6v-4.2h4.9V142h-4.9l-4.5-7.4h-0.1c0.2,0.9,0.3,1.9,0.3,2.8
	v4.6H156V127.9z"/>
<path class="st1" d="M185.5,137l0.3,0.2c0.9,0.8,2,1.2,3.2,1.3c0.5,0,1.3-0.2,1.3-0.8s-0.7-0.7-1.1-0.8l-1-0.2
	c-2-0.4-3.7-1.5-3.7-3.8c0-3.4,3.1-5.2,6.1-5.2c1.6,0,3.1,0.4,4.5,1.2l-1.4,3.6c-0.9-0.7-1.9-1-3-1.1c-0.4,0-1.1,0.2-1.1,0.8
	s0.6,0.6,1,0.7l1.2,0.3c2.2,0.5,3.8,1.7,3.8,4.1c0,3.4-3.1,5.1-6.1,5.1c-1.9,0-3.7-0.5-5.4-1.3L185.5,137z"/>
<path class="st1" d="M211.5,127.9h10.8v4.6l-2.8-0.1v9.7h-5.1v-9.7l-2.8,0.1V127.9z"/>
<path class="st1" d="M240.3,127.9h5.1V142h-5.1V127.9z"/>
<path class="st1" d="M263.7,127.9h10.8v4.6l-2.8-0.1v9.7h-5.1v-9.7l-2.8,0.1V127.9z"/>
<path class="st1" d="M303.3,127.9v8.4c0,4.1-2.6,6-6.6,6s-6.6-1.9-6.6-6v-8.4h5.1v7.9c0,1.1,0,2.1,1.4,2.1s1.4-1,1.4-2.1v-7.9
	L303.3,127.9z"/>
<path class="st1" d="M317,127.9h10.8v4.6l-2.8-0.1v9.7h-5.1v-9.7l-2.8,0.1V127.9z"/>
<path class="st1" d="M344.6,127.9h9.5v3.9h-4.3v1.4h4v3.7h-4v1.4h4.5v3.8h-9.7V127.9z"/>
<path class="st1" d="M138.8,68v25.4c0,12.5-7.9,18.2-19.9,18.2s-19.9-5.7-19.9-18.2V68h15.6v23.9c0,3.4,0.1,6.3,4.3,6.3
	s4.3-3,4.3-6.3V68H138.8z"/>
<path class="st1" d="M155.1,68h18.9c9.7,0,17.9,4.1,17.9,14.9c0,6.5-2.5,9.2-8.3,11.2v0.3c1,0.7,1.9,1.6,2.6,2.6l9.3,14h-18
	l-6.8-13.8h-0.3V111h-15.3V68z M170.3,87h1.1c2.6,0,5.1-0.4,5.1-3.6s-2.3-3.7-5-3.7h-1.2L170.3,87z"/>
<path class="st1" d="M207.4,68h18.2c8.3,0,16.8,2,16.8,11.9c0,3.8-1.9,7.5-5.6,8.7v0.3c4.7,1.7,7.6,5.1,7.6,10.2
	c0,8.8-8.2,11.8-15.7,11.8h-21.2V68z M223.3,84.5c2.3,0,4.8-0.2,4.8-3.2c0-3.2-2.9-3-5.2-3h-1.1v6.2L223.3,84.5z M221.9,100.7h1.8
	c2.6,0,6.3-0.1,6.3-3.6s-4-3.5-6.5-3.5h-1.5L221.9,100.7z"/>
<path class="st1" d="M269.8,110.9h-16.5L268.2,68h17.3l15.3,43h-16.5l-1.4-5.4h-11.8L269.8,110.9z M280.1,95.4l-1.8-7.6
	c-0.5-1.8-0.7-3.7-1-5.5h-0.6l-2.8,13.1H280.1z"/>
<path class="st1" d="M311.1,68h15l14,23.8h0.5c-0.7-3.6-1.2-7.3-1.3-10.9V68h14.9v43h-14.9l-13.7-22.6h-0.5c0.6,2.8,0.9,5.7,1,8.6
	v14h-15V68z"/>
<rect x="213.5" y="213.1" class="st1" width="4.4" height="4.4"/>
<rect x="186.9" y="213.1" class="st1" width="4.4" height="4.4"/>
<rect x="106.9" y="213.1" class="st1" width="4.4" height="4.4"/>
<rect x="133.5" y="213.1" class="st1" width="4.4" height="4.4"/>
<rect x="160.2" y="213.1" class="st1" width="4.4" height="4.4"/>
<rect x="80.2" y="213.1" class="st1" width="4.4" height="4.4"/>
<rect x="53.5" y="213.1" class="st1" width="4.4" height="4.4"/>
<rect x="26.9" y="213.1" class="st1" width="4.4" height="4.4"/>
<rect x="186.9" y="53.1" class="st1" width="4.4" height="4.4"/>
<rect x="213.5" y="53.1" class="st1" width="4.4" height="4.4"/>
<rect x="106.9" y="53.1" class="st1" width="4.4" height="4.4"/>
<rect x="133.5" y="53.1" class="st1" width="4.4" height="4.4"/>
<rect x="160.2" y="53.1" class="st1" width="4.4" height="4.4"/>
<rect x="80.2" y="53.1" class="st1" width="4.4" height="4.4"/>
<rect x="186.9" y="159.8" class="st1" width="4.4" height="4.4"/>
<rect x="213.5" y="159.8" class="st1" width="4.4" height="4.4"/>
<rect x="106.9" y="159.8" class="st1" width="4.4" height="4.4"/>
<rect x="133.5" y="159.8" class="st1" width="4.4" height="4.4"/>
<rect x="160.2" y="159.8" class="st1" width="4.4" height="4.4"/>
<rect x="80.2" y="159.8" class="st1" width="4.4" height="4.4"/>
<rect x="80.2" y="133.1" class="st1" width="4.4" height="4.4"/>
<rect x="80.2" y="106.5" class="st1" width="4.4" height="4.4"/>
<rect x="80.2" y="79.8" class="st1" width="4.4" height="4.4"/>
<rect x="160.2" y="53.1" class="st1" width="4.4" height="4.4"/>
<rect x="186.9" y="53.1" class="st1" width="4.4" height="4.4"/>
<rect x="213.5" y="53.1" class="st1" width="4.4" height="4.4"/>
<rect x="80.2" y="53.1" class="st1" width="4.4" height="4.4"/>
<rect x="106.9" y="53.1" class="st1" width="4.4" height="4.4"/>
<rect x="133.5" y="53.1" class="st1" width="4.4" height="4.4"/>
<rect x="53.5" y="53.1" class="st1" width="4.4" height="4.4"/>
<rect x="53.5" y="159.8" class="st1" width="4.4" height="4.4"/>
<rect x="53.5" y="133.1" class="st1" width="4.4" height="4.4"/>
<rect x="53.5" y="106.5" class="st1" width="4.4" height="4.4"/>
<rect x="53.5" y="79.8" class="st1" width="4.4" height="4.4"/>
<rect x="133.5" y="53.1" class="st1" width="4.4" height="4.4"/>
<rect x="160.2" y="53.1" class="st1" width="4.4" height="4.4"/>
<rect x="186.9" y="53.1" class="st1" width="4.4" height="4.4"/>
<rect x="213.5" y="53.1" class="st1" width="4.4" height="4.4"/>
<rect x="53.5" y="53.1" class="st1" width="4.4" height="4.4"/>
<rect x="80.2" y="53.1" class="st1" width="4.4" height="4.4"/>
<rect x="106.9" y="53.1" class="st1" width="4.4" height="4.4"/>
<rect x="186.9" y="186.5" class="st1" width="4.4" height="4.4"/>
<rect x="213.5" y="186.5" class="st1" width="4.4" height="4.4"/>
<rect x="106.9" y="186.5" class="st1" width="4.4" height="4.4"/>
<rect x="133.5" y="186.5" class="st1" width="4.4" height="4.4"/>
<rect x="160.2" y="186.5" class="st1" width="4.4" height="4.4"/>
<rect x="80.2" y="186.5" class="st1" width="4.4" height="4.4"/>
<rect x="53.5" y="186.5" class="st1" width="4.4" height="4.4"/>
<rect x="26.9" y="53.1" class="st1" width="4.4" height="4.4"/>
<rect x="26.9" y="159.8" class="st1" width="4.4" height="4.4"/>
<rect x="26.9" y="186.5" class="st1" width="4.4" height="4.4"/>
<rect x="26.9" y="133.1" class="st1" width="4.4" height="4.4"/>
<rect x="26.9" y="106.5" class="st1" width="4.4" height="4.4"/>
<rect x="26.9" y="79.8" class="st1" width="4.4" height="4.4"/>
<rect x="106.9" y="133.1" class="st1" width="4.4" height="4.4"/>
<rect x="186.9" y="26.5" class="st1" width="4.4" height="4.4"/>
<rect x="213.5" y="26.5" class="st1" width="4.4" height="4.4"/>
<rect x="106.9" y="26.5" class="st1" width="4.4" height="4.4"/>
<rect x="133.5" y="26.5" class="st1" width="4.4" height="4.4"/>
<rect x="160.2" y="26.5" class="st1" width="4.4" height="4.4"/>
<rect x="80.2" y="26.5" class="st1" width="4.4" height="4.4"/>
<rect x="53.5" y="26.5" class="st1" width="4.4" height="4.4"/>
<rect x="26.9" y="26.5" class="st1" width="4.4" height="4.4"/>
</svg>
